<?xml version="1.0" encoding="iso-8859-1"?>
<!-- Generator: Adobe Illustrator 19.0.0, SVG Export Plug-In . SVG Version: 6.00 Build 0)  -->
<svg version="1.1" id="Capa_1" xmlns="http://www.w3.org/2000/svg" xmlns:xlink="http://www.w3.org/1999/xlink" x="0px" y="0px"
	 viewBox="0 0 512.001 512.001" style="enable-background:new 0 0 512.001 512.001;" xml:space="preserve">
<path style="fill:#FEDBAB;" d="M256.011,0c-41.4,0-75,33.6-75,75s33.6,75,75,75s75-33.6,75-75S297.411,0,256.011,0z"/>
<path style="fill:#FEC478;" d="M331.011,75c0,41.4-33.6,75-75,75V0C297.411,0,331.011,33.6,331.011,75z"/>
<path style="fill:#FEDBAB;" d="M151.011,150H83.463L59.132,52.72c-4.061-16.121-20.38-25.794-36.387-21.841
	C6.517,34.944-3.051,51.308,0.919,67.28l30,120C34.244,200.654,46.212,210,60.011,210h91V150z"/>
<path style="fill:#17ACE8;" d="M168.735,150H151.01v60v60l30,23.426l81.812-61.615L189.8,158.789
	C184.131,153.12,176.646,150,168.735,150z"/>
<path style="fill:#1689FC;" d="M361.011,150H335.81c-6.899,0-13.799,2.399-19.199,6.899l-60.601,41.4l-105,71.7v122.962h210V270v-60
	v-60H361.011z"/>
<path style="fill:#FEC478;" d="M489.21,30.899c-15.601-3.9-32.1,5.7-36.299,21.901L428.61,150h-67.599v60h91
	c13.801,0,25.8-9.3,29.099-22.8l30-120C515.01,51.299,505.412,34.799,489.21,30.899z"/>
<path style="fill:#FEDBAB;" d="M382.91,481.463c-8.099,23.699-33.9,35.999-57.299,28.2l-69.6-29.702l-164.7-69.899v-0.3
	c-23.401-8.101-36-33.6-27.9-57.001c8.099-23.399,33.6-36,56.999-27.9l135.601,57.599l98.699,42.001
	C378.111,432.562,390.71,458.062,382.91,481.463z"/>
<path style="fill:#FFC380;" d="M382.91,481.463c-8.099,23.699-33.9,35.999-57.299,28.2l-69.6-29.702v-97.5l98.699,42.001
	C378.111,432.562,390.71,458.062,382.91,481.463z"/>
<path style="fill:#FFD499;" d="M420.811,409.762l-0.3,0.3l-164.5,69.6l-70.8,30c-23.401,7.798-48.9-4.501-57.001-28.2
	c-8.101-23.401,4.501-48.9,28.2-57.001l99.6-42.299l134.399-57.301c23.401-8.101,50.2,4.501,58.301,27.9
	C456.512,376.162,444.21,401.661,420.811,409.762z"/>
<path style="fill:#FFC380;" d="M420.811,409.762l-0.3,0.3l-164.5,69.6v-97.5l134.399-57.301c23.401-8.101,50.2,4.501,58.301,27.9
	C456.512,376.162,444.21,401.661,420.811,409.762z"/>
<g>
</g>
<g>
</g>
<g>
</g>
<g>
</g>
<g>
</g>
<g>
</g>
<g>
</g>
<g>
</g>
<g>
</g>
<g>
</g>
<g>
</g>
<g>
</g>
<g>
</g>
<g>
</g>
<g>
</g>
</svg>
