<?xml version="1.0" encoding="iso-8859-1"?>
<!-- Generator: Adobe Illustrator 19.0.0, SVG Export Plug-In . SVG Version: 6.00 Build 0)  -->
<svg version="1.1" id="Capa_1" xmlns="http://www.w3.org/2000/svg" xmlns:xlink="http://www.w3.org/1999/xlink" x="0px" y="0px"
	 viewBox="0 0 512 512" style="enable-background:new 0 0 512 512;" xml:space="preserve">
<polygon style="fill:#C5C9F7;" points="332.352,99.419 310.042,279.837 397.918,302.381 418.367,136.86 "/>
<path style="fill:#E1E4FB;" d="M165.3,226.099c0.899,8.101-4.801,15.601-13.2,16.8l-17.1,2.1l-44.099,5.4c-7.5,0-14.101-5.7-15-13.2
	L63.6,136.8c-0.899-8.101,4.801-15.601,13.2-16.8h60.3c8.101-0.901,15.601,4.799,16.8,13.2L165.3,226.099z"/>
<path style="fill:#495A79;" d="M512,392c0,23.399-9,45.599-25.201,62.399L409.701,482H105l-60-34.501C16.5,421.7,0,385.399,0,347
	c0-74.401,60.601-135,135-135c14.099,0,28.2,2.1,41.7,6.599l273.199,87.9C487.099,318.5,512,352.7,512,392z"/>
<path style="fill:#42516D;" d="M449.9,306.499L256,244.113V482h153.701l77.098-27.601C503,437.599,512,415.399,512,392
	C512,352.7,487.099,318.5,449.9,306.499z"/>
<path style="fill:#E1E4FB;" d="M135,272c-41.4,0-75,33.6-75,75s33.6,75,75,75s75-33.6,75-75S176.4,272,135,272z"/>
<path style="fill:#6F7D96;" d="M105,512H15c-8.291,0-15-6.709-15-15v-15c0-33.091,26.909-60,60-60s60,26.909,60,60v15
	C120,505.291,113.291,512,105,512z"/>
<path style="fill:#66728B;" d="M497,512h-90c-8.291,0-15-6.709-15-15v-15c0-33.091,26.909-60,60-60s60,26.909,60,60v15
	C512,505.291,505.291,512,497,512z"/>
<path style="fill:#495A79;" d="M170.4,55.8l-35.4-6L65.4,38.101C49.2,35.7,32.401,40.201,19.799,50.7C7.2,61.5,0,77.1,0,93.6
	C0,124.799,25.201,150,56.4,150h106.199c26.1,0,47.401-21.301,47.401-47.401C210,79.2,193.2,59.399,170.4,55.8z"/>
<path style="fill:#42516D;" d="M407,150h-30c-24.814,0-45-20.186-45-45s20.186-45,45-45h30c8.276,0,15-6.724,15-15
	c0-24.814,20.186-45,45-45s45,20.186,45,45C512,102.891,464.891,150,407,150z"/>
<g>
	<path style="fill:#C5C9F7;" d="M377,422c-24.814,0-45-20.186-45-45s20.186-45,45-45s45,20.186,45,45S401.814,422,377,422z"/>
	<path style="fill:#C5C9F7;" d="M271,407c0,8.399-6.599,15-15,15h-31c-2.999,0-6-0.901-8.401-2.401L135,365.3l-8.401-5.7
		c-6.899-4.799-8.699-14.099-4.199-21c2.999-4.2,7.8-6.599,12.599-6.599c2.999,0,5.7,0.599,8.401,2.399l86.1,57.601H256
		C264.401,392,271,398.599,271,407z"/>
</g>
<path style="fill:#A8AFF1;" d="M271,407c0-8.401-6.599-15-15-15v30C264.401,422,271,415.399,271,407z"/>
<g>
</g>
<g>
</g>
<g>
</g>
<g>
</g>
<g>
</g>
<g>
</g>
<g>
</g>
<g>
</g>
<g>
</g>
<g>
</g>
<g>
</g>
<g>
</g>
<g>
</g>
<g>
</g>
<g>
</g>
</svg>
